<svg width="350" height="150" viewBox="0 0 350 150" fill="none" xmlns="http://www.w3.org/2000/svg">
<rect width="350" height="150" fill="white"/>
<path d="M177.906 102.057H182.17V93.5991H187.439H187.508L193.47 102.057H198.496L191.945 92.8712C193.713 92.3859 195.134 91.5193 196.174 90.2714C197.214 89.0235 197.734 87.4637 197.734 85.5225V85.4532C197.734 83.3734 197.041 81.6056 195.723 80.219C194.06 78.6245 191.702 77.7926 188.721 77.7926H177.906V102.057ZM182.17 89.8208V81.6749H188.375C189.969 81.6749 191.182 82.0215 192.084 82.7148C192.95 83.4081 193.401 84.4133 193.401 85.6958V85.7652C193.401 87.0131 192.95 87.9836 192.049 88.7116C191.148 89.4742 189.935 89.8208 188.409 89.8208H182.17Z" fill="black"/>
<path d="M204.728 102.057H209.095L211.591 96.1989H223.065L225.526 102.057H230.032L219.356 77.6193H215.404L204.728 102.057ZM213.151 92.4205L217.311 82.7148L221.505 92.4205H213.151Z" fill="black"/>
<path d="M238.045 102.057H247.092C250.835 102.057 253.92 100.913 256.347 98.5906C258.773 96.3028 259.986 93.3911 259.986 89.9248V89.8555C259.986 86.4238 258.773 83.5467 256.347 81.2589C253.92 78.9711 250.835 77.7926 247.092 77.7926H238.045V102.057ZM242.308 98.1747V81.6749H247.092C249.587 81.6749 251.633 82.4721 253.192 83.9973C254.718 85.5572 255.515 87.533 255.515 89.9248V89.9941C255.515 92.4205 254.718 94.3617 253.192 95.8869C251.633 97.4121 249.587 98.1747 247.092 98.1747H242.308Z" fill="black"/>
<path d="M269.253 102.057H273.517V77.7926H269.253V102.057Z" fill="black"/>
<path d="M281.784 102.057H286.152L288.647 96.1989H300.121L302.582 102.057H307.088L296.412 77.6193H292.46L281.784 102.057ZM290.207 92.4205L294.367 82.7148L298.561 92.4205H290.207Z" fill="black"/>
<path d="M315.101 102.057H332.12V98.1747H319.364V77.7926H315.101V102.057Z" fill="black"/>
<circle cx="82.8923" cy="89.8757" r="36.5892" stroke="black" stroke-width="7.70298"/>
<path fill-rule="evenodd" clip-rule="evenodd" d="M45.5583 45.2946C49.2808 45.2946 52.2985 42.2769 52.2985 38.5544C52.2985 34.832 49.2808 31.8143 45.5583 31.8143C41.8359 31.8143 38.8182 34.832 38.8182 38.5544C38.8182 42.2769 41.8359 45.2946 45.5583 45.2946ZM51.2182 37.3901C50.6795 34.7576 48.3502 32.7773 45.5584 32.7773C42.3677 32.7773 39.7811 35.3638 39.7811 38.5545C39.7811 38.5545 39.7811 38.5545 39.7811 38.5544C39.7811 35.3638 42.3677 32.7772 45.5583 32.7772C48.3502 32.7772 50.6795 34.7575 51.2182 37.3901Z" fill="#8AB958"/>
<path fill-rule="evenodd" clip-rule="evenodd" d="M22.5001 77.0874C26.2226 77.0874 29.2402 74.0697 29.2402 70.3473C29.2402 66.6248 26.2226 63.6072 22.5001 63.6072C18.7777 63.6072 15.76 66.6248 15.76 70.3473C15.76 74.0697 18.7777 77.0874 22.5001 77.0874ZM25.0048 75.5548C24.2471 75.9199 23.3975 76.1245 22.5001 76.1245C19.3094 76.1245 16.7229 73.538 16.7229 70.3473C16.7229 68.1163 17.9875 66.1807 19.8389 65.2181C17.9875 66.1807 16.723 68.1163 16.723 70.3472C16.723 73.5379 19.3096 76.1245 22.5003 76.1245C23.3976 76.1245 24.2471 75.9199 25.0048 75.5548Z" fill="#00518E"/>
<path fill-rule="evenodd" clip-rule="evenodd" d="M15.715 109.608C15.715 113.331 18.7326 116.349 22.4551 116.349C26.1775 116.349 29.1952 113.331 29.1952 109.608C29.1952 105.886 26.1775 102.868 22.4551 102.868C18.7326 102.868 15.715 105.886 15.715 109.608ZM17.9971 105.934C19.0567 104.65 20.6603 103.831 22.455 103.831C25.6457 103.831 28.2323 106.418 28.2323 109.608C28.2323 110.953 27.773 112.19 27.0028 113.172C27.773 112.19 28.2323 110.953 28.2323 109.608C28.2323 106.418 25.6458 103.831 22.4551 103.831C20.6603 103.831 19.0567 104.65 17.9971 105.934Z" fill="black"/>
<path fill-rule="evenodd" clip-rule="evenodd" d="M143.29 116.338C147.012 116.338 150.03 113.32 150.03 109.598C150.03 105.875 147.012 102.858 143.29 102.858C139.568 102.858 136.55 105.875 136.55 109.598C136.55 113.32 139.568 116.338 143.29 116.338ZM140.1 104.781C141.014 104.174 142.111 103.821 143.29 103.821C146.481 103.821 149.067 106.407 149.067 109.598C149.067 111.492 148.155 113.174 146.747 114.227C148.155 113.174 149.067 111.492 149.067 109.598C149.067 106.407 146.481 103.82 143.29 103.82C142.111 103.82 141.014 104.174 140.1 104.781Z" fill="#DE1E3D"/>
<path fill-rule="evenodd" clip-rule="evenodd" d="M143.29 77.0916C147.012 77.0916 150.03 74.074 150.03 70.3515C150.03 66.629 147.012 63.6114 143.29 63.6114C139.568 63.6114 136.55 66.629 136.55 70.3515C136.55 74.074 139.568 77.0916 143.29 77.0916ZM149.067 70.3515C149.067 73.3428 146.794 75.8031 143.881 76.0989C146.794 75.803 149.067 73.3427 149.067 70.3515C149.067 67.206 146.553 64.6476 143.425 64.5758C146.553 64.6476 149.067 67.206 149.067 70.3515ZM143.215 76.1283C143.24 76.1286 143.265 76.1287 143.29 76.1287Z" fill="#EF7E49"/>
<path fill-rule="evenodd" clip-rule="evenodd" d="M113.501 38.5734C113.501 42.2959 116.519 45.3135 120.241 45.3135C123.964 45.3135 126.981 42.2959 126.981 38.5734C126.981 34.851 123.964 31.8333 120.241 31.8333C116.519 31.8333 113.501 34.851 113.501 38.5734ZM126.018 38.5734C126.018 41.7641 123.432 44.3507 120.241 44.3507C118.247 44.3507 116.489 43.3403 115.451 41.8035C116.489 43.3403 118.247 44.3506 120.241 44.3506C123.432 44.3506 126.018 41.7641 126.018 38.5734C126.018 37.5031 125.727 36.5007 125.22 35.6412C125.727 36.5008 126.018 37.5031 126.018 38.5734Z" fill="#FFC400"/>
<path fill-rule="evenodd" clip-rule="evenodd" d="M82.8922 33.1639C86.6147 33.1639 89.6323 30.1463 89.6323 26.4238C89.6323 22.7014 86.6147 19.6837 82.8922 19.6837C79.1697 19.6837 76.1521 22.7014 76.1521 26.4238C76.1521 30.1463 79.1697 33.1639 82.8922 33.1639ZM83.4829 20.6764C83.2887 20.6567 83.0916 20.6466 82.8922 20.6466C79.7015 20.6466 77.115 23.2331 77.115 26.4238C77.115 29.3154 79.2393 31.7108 82.0124 32.1345C79.2393 31.7107 77.1151 29.3154 77.1151 26.4238C77.1151 23.2332 79.7016 20.6466 82.8923 20.6466C83.0917 20.6466 83.2887 20.6567 83.4829 20.6764Z" fill="#E1F25A"/>
<path d="M73.2034 104.4C73.2034 107.279 75.7905 109.608 78.9865 109.608C82.1824 109.608 84.7696 107.279 84.7696 104.4V94.6699C84.7696 87.2691 88.0416 83.2261 93.9007 81.9926C96.2596 81.5129 98.2381 79.8683 98.2381 77.1273C98.2381 74.1807 96.1835 72.0564 92.6072 72.0564C89.183 72.0564 86.4436 75.3456 84.7696 78.909V77.2643C84.7696 74.3863 82.1824 72.0564 78.9865 72.0564C75.7905 72.0564 73.2034 74.3863 73.2034 77.2643V104.4Z" fill="black"/>
</svg>
